<svg width="40" height="40" viewBox="0 0 40 40" fill="none" xmlns="http://www.w3.org/2000/svg">
<path d="M29.6871 20C32.8448 19.406 35.9519 17.9382 37.8477 16.0094L40 13.8196L36.9053 13.2512C34.1795 12.7504 30.7587 13.3 27.8369 14.5847C30.0246 12.3389 31.6312 9.41452 31.9727 6.79432L32.3607 3.81962L29.5058 5.08968C26.9911 6.20838 24.5633 8.5652 22.9933 11.238C23.3752 8.19814 22.8677 4.93414 21.5246 2.62334L20 0L18.4752 2.62334C17.1322 4.93414 16.6247 8.19814 17.0065 11.238C15.4367 8.5652 13.0088 6.20828 10.4941 5.08968L7.63927 3.81962L8.02709 6.79432C8.36872 9.41452 9.97535 12.3389 12.163 14.5847C9.24118 13.3 5.82028 12.7505 3.0945 13.2512L0 13.8196L2.15221 16.0094C4.04797 17.9382 7.15501 19.406 10.3129 20C7.15511 20.594 4.04797 22.0616 2.15221 23.9906L0 26.1804L3.0945 26.7488C5.82028 27.2496 9.2411 26.7 12.163 25.4152C9.97535 27.6612 8.36872 30.5854 8.02709 33.2056L7.63927 36.1802L10.494 34.9104C13.0087 33.7916 15.4366 31.4348 17.0064 28.762C16.6246 31.8018 17.1321 35.0658 18.4752 37.3766L19.9998 40L21.5244 37.3766C22.8675 35.0658 23.375 31.8018 22.9933 28.762C24.5631 31.4348 26.9909 33.7918 29.5056 34.9104L32.3603 36.1802L31.9725 33.2056C31.6308 30.5854 30.0242 27.6612 27.8367 25.4152C30.7585 26.7 34.1793 27.2494 36.9051 26.7488L39.9996 26.1804L37.8475 23.9906C35.9519 22.0618 32.8448 20.594 29.6871 20Z" fill="white"/>
</svg>
